<svg width="153" height="153" viewBox="0 0 153 153" fill="none" xmlns="http://www.w3.org/2000/svg">
<g id="LINKPINCH">
<g clip-path="url(#clip0_151_18)">
<rect width="153" height="153" rx="76.5" fill="white"/>
<g id="Logo">
<g id="pinching">
<path id="hand" d="M104.153 148.723C103.922 148.494 103.733 147.696 103.733 146.949C103.733 146.206 103.259 144.2 102.68 142.5C101.838 140.031 100.33 138.134 95.2071 133.107C88.8328 126.851 88.7525 126.735 83.6327 116.297C77.9833 104.78 75.1113 100.021 70.3749 94.3298C67.0423 90.3256 66.0433 87.906 67.0538 86.2864C68.7341 83.5936 73.9557 82.9269 77.8056 84.9148C80.9795 86.553 84.3625 90.1747 88.2278 96.0729C91.5852 101.195 93.2816 102.307 94.7264 100.331C95.8563 98.7854 95.835 79.9161 94.7046 76.7883C94.2652 75.5775 91.6305 71.6137 88.8503 67.9799C82.2774 59.3901 82.0914 59.0207 82.9827 56.3202C83.9433 53.4088 86.3485 51.622 89.3065 51.622C91.5891 51.622 92.0015 51.9827 98.8164 59.943C102.735 64.5199 106.436 68.8378 107.041 69.5383C108.05 70.7044 108.196 70.723 108.775 69.7569C109.66 68.287 112.763 67.7439 115.366 68.6028C118.587 69.6629 120.097 71.9251 120.097 75.6824V78.8123L121.299 77.3271C122.283 76.113 123.096 75.8419 125.755 75.8419C128.634 75.8419 129.219 76.0824 130.844 77.8965C132.128 79.3336 132.68 80.6101 132.68 82.1433V84.3356L133.938 83.0777C136.492 80.5237 142.161 82.1488 143.721 85.8842C144.394 87.4962 144.612 92.2096 144.664 106.36L144.73 124.741L141.272 131.749C137.953 138.476 136.454 143.311 136.454 147.283V149.14H120.515C111.748 149.14 104.384 148.953 104.153 148.723ZM40.6949 127.571L39 126.179L44.0756 119.295L49.1512 112.411L47.7146 111.248C46.9244 110.604 45.8301 109.834 45.2828 109.528C44.7353 109.222 44.4271 108.851 44.5976 108.698C44.7681 108.545 48.5453 106.576 52.9922 104.322C60.8997 100.314 61.0704 100.261 60.7546 101.878C60.5765 102.785 59.9306 106.787 59.3179 110.767C58.7059 114.747 58.1219 118.113 58.0216 118.247C57.9233 118.378 56.8465 117.733 55.6333 116.81L53.4275 115.128L48.3274 122.07C45.5224 125.888 43.0391 129.003 42.8088 128.99C42.5782 128.979 41.627 128.342 40.6949 127.571ZM68.1595 99.5143C56.7175 94.3167 60.231 77.4965 72.7721 77.432C76.1493 77.432 79.8935 79.2833 81.9908 82.033C84.2361 84.9771 84.0071 85.9716 81.5209 84.0755C74.7046 78.8757 68.671 79.0462 65.3268 84.5345C62.998 88.353 64.3531 94.4139 67.9687 96.3494C70.2222 97.5548 72.5667 100.728 71.1743 100.687C70.9142 100.679 69.558 100.147 68.1595 99.5143ZM82.2406 67.0597C80.9861 66.2073 79.3633 64.2773 78.6341 62.7714C75.023 55.3115 79.7415 46.8954 87.9786 46.1042C93.9318 45.5359 99.5209 49.9008 100.357 55.7803L100.706 58.2283L98.9209 56.0262C94.8488 51.0024 93.2903 49.6538 90.9498 49.1281C84.5885 47.7009 78.6926 53.6569 80.4392 59.7463C80.767 60.8895 82.1877 63.3506 83.5967 65.2172C86.3638 68.8815 85.883 69.535 82.2406 67.0597ZM99.947 45.8179C99.9408 45.3807 100.546 41.2858 101.293 36.7286L102.65 28.4403L105.092 30.0567C106.435 30.9419 107.616 31.5604 107.715 31.4238C107.813 31.2818 109.959 28.272 112.48 24.7257C115.001 21.1794 117.25 18.162 117.477 18.0221C117.705 17.8801 118.729 18.4374 119.753 19.2516L121.616 20.7368L119.623 23.4383C118.528 24.9246 116.293 28.0589 114.658 30.4042L111.685 34.6674L113.793 36.4269L115.9 38.1864L109.974 41.3634C100.179 46.6156 99.9599 46.7118 99.947 45.8179Z" fill="black"/>
<ellipse id="BLOCKERDOWN" cx="51.5" cy="116.5" rx="17.5" ry="20.5" fill="white"/>
<ellipse id="BLOCKERUP" cx="108.5" cy="29.5" rx="17.5" ry="20.5" fill="white"/>
</g>
<path id="link" d="M61.9243 60.2009C58.832 58.0755 54.6024 58.8592 52.4769 61.9513L48.6285 67.5502C46.503 70.6424 47.2867 74.8721 50.3789 76.9975C53.471 79.1229 57.7007 78.3392 59.8261 75.2471L61.7504 72.4476M58.0757 65.7999C61.168 67.9252 65.3976 67.1416 67.5231 64.0495L71.3715 58.4505C73.497 55.3584 72.7133 51.1287 69.6212 49.0033C66.5291 46.8778 62.2993 47.6615 60.1739 50.7536L58.2496 53.5531" stroke="black" stroke-width="2" stroke-linecap="round" stroke-linejoin="round"/>
</g>
<g id="YATOCHKA">
<path id="Y" d="M7.11326 73.0185L7.25516 71.5123L12.6088 68.9778L12.6208 68.8505L7.83476 65.3606L7.97666 63.8545L13.992 68.3805L18.4679 68.8022L18.344 70.1174L13.8681 69.6957L7.11326 73.0185Z" fill="black"/>
<path id="a" d="M20.5672 58.8578C20.4188 59.3546 20.1906 59.7774 19.8825 60.1264C19.571 60.4744 19.201 60.7141 18.7726 60.8456C18.3408 60.976 17.8697 60.965 17.3593 60.8126C16.9101 60.6784 16.5725 60.4812 16.3463 60.2209C16.1168 59.9596 15.9662 59.657 15.8948 59.3132C15.8233 58.9695 15.8018 58.6072 15.8302 58.2266C15.8563 57.8415 15.8999 57.4598 15.961 57.0815C16.0421 56.5869 16.1115 56.187 16.1693 55.8818C16.2247 55.5722 16.2336 55.3377 16.196 55.1782C16.1595 55.0153 16.0442 54.9049 15.8502 54.847L15.8094 54.8348C15.3058 54.6843 14.8734 54.7052 14.512 54.8975C14.1517 55.0864 13.8887 55.4581 13.723 56.0127C13.5513 56.5877 13.5425 57.0762 13.6967 57.4781C13.8509 57.8799 14.0511 58.1899 14.2973 58.408L13.5474 59.4293C13.1321 59.0828 12.8425 58.6998 12.6787 58.2803C12.5126 57.8563 12.4373 57.4261 12.4527 56.9897C12.4658 56.5489 12.5313 56.1311 12.6492 55.7364C12.7244 55.4846 12.8415 55.2046 13.0003 54.8962C13.1567 54.5834 13.3726 54.3014 13.6478 54.05C13.924 53.7953 14.2781 53.6212 14.7099 53.5279C15.1418 53.4345 15.6691 53.4808 16.2917 53.6668L21.4568 55.2098L21.097 56.4143L20.0354 56.0972L20.0171 56.1584C20.1628 56.2909 20.3042 56.4814 20.4412 56.7299C20.5783 56.9783 20.6676 57.2811 20.7091 57.6382C20.7507 57.9953 20.7034 58.4018 20.5672 58.8578ZM19.5401 58.3508C19.6824 57.8745 19.7087 57.445 19.6192 57.0625C19.5306 56.6765 19.3632 56.3559 19.117 56.1008C18.8718 55.8422 18.5859 55.6642 18.2593 55.5666L17.1568 55.2373C17.2028 55.3066 17.2254 55.4357 17.2246 55.6244C17.2214 55.8088 17.205 56.0188 17.1754 56.2546C17.1433 56.4859 17.1094 56.7111 17.0736 56.9302C17.0354 57.1449 17.0055 57.3194 16.9839 57.4538C16.9312 57.779 16.9102 58.0915 16.9207 58.3911C16.9289 58.6864 16.9982 58.9443 17.1288 59.1649C17.2569 59.381 17.4741 59.5349 17.7803 59.6263C18.1988 59.7514 18.5615 59.6911 18.8684 59.4455C19.1729 59.1955 19.3968 58.8306 19.5401 58.3508Z" fill="black"/>
<path id="t" d="M18.6753 41.6769L19.617 42.1751L17.6341 45.9229L16.6924 45.4247L18.6753 41.6769ZM15.5377 43.4157L16.1256 42.3045L23.0186 45.9514C23.3325 46.1175 23.592 46.1965 23.7971 46.1885C24.0007 46.1757 24.1674 46.1113 24.2971 45.9951C24.4254 45.8741 24.5327 45.7321 24.6191 45.5688C24.6839 45.4464 24.7307 45.3427 24.7597 45.2575C24.7855 45.1708 24.8062 45.1013 24.8217 45.0493L25.9394 45.3514C25.9278 45.4417 25.9004 45.5618 25.8572 45.7117C25.8172 45.8633 25.7424 46.0426 25.6328 46.2498C25.4667 46.5637 25.2365 46.8356 24.9421 47.0655C24.6494 47.2923 24.3126 47.4315 23.9317 47.4831C23.5525 47.5316 23.1526 47.4445 22.732 47.222L15.5377 43.4157Z" fill="black"/>
<path id="o" d="M31.7175 37.3338C31.2513 37.9067 30.7059 38.2985 30.0814 38.5091C29.459 38.7169 28.8041 38.7426 28.1166 38.5861C27.4313 38.4268 26.7608 38.0804 26.1052 37.547C25.4441 37.0091 24.9646 36.4198 24.6665 35.779C24.3706 35.1354 24.2612 34.4878 24.3381 33.8362C24.4172 33.1819 24.6899 32.5682 25.1561 31.9953C25.6222 31.4223 26.1665 31.0319 26.7888 30.8241C27.4134 30.6135 28.0697 30.589 28.7577 30.7505C29.448 30.9093 30.1237 31.2576 30.7848 31.7955C31.4404 32.3289 31.9148 32.9162 32.2079 33.5576C32.5032 34.1962 32.6113 34.8426 32.5321 35.497C32.4552 36.1486 32.1836 36.7608 31.7175 37.3338ZM30.8415 36.6211C31.1956 36.1859 31.3754 35.737 31.3809 35.2745C31.3864 34.812 31.2622 34.3653 31.0084 33.9345C30.7547 33.5037 30.4157 33.1157 29.9915 32.7706C29.5673 32.4255 29.1171 32.1713 28.6409 32.0082C28.1647 31.8451 27.6994 31.8122 27.2449 31.9094C26.7904 32.0066 26.3861 32.2728 26.032 32.708C25.6779 33.1432 25.4995 33.5932 25.4968 34.0579C25.4941 34.5227 25.621 34.9716 25.8775 35.4046C26.134 35.8377 26.4744 36.2268 26.8986 36.5719C27.3228 36.9171 27.7716 37.1701 28.2451 37.3309C28.7185 37.4918 29.1811 37.5225 29.6328 37.4231C30.0845 37.3236 30.4874 37.0563 30.8415 36.6211Z" fill="black"/>
<path id="c" d="M39.9721 29.002C39.3812 29.4911 38.7569 29.7728 38.0992 29.847C37.4415 29.9213 36.7951 29.8087 36.1599 29.5092C35.5248 29.2098 34.9469 28.7455 34.4261 28.1163C33.8962 27.4762 33.5462 26.8139 33.3761 26.1296C33.2065 25.4402 33.2194 24.7818 33.4147 24.1546C33.6104 23.5223 33.9928 22.9706 34.5618 22.4996C35.0049 22.1328 35.4723 21.8843 35.9637 21.754C36.4552 21.6238 36.9368 21.6124 37.4084 21.7199C37.88 21.8274 38.3062 22.0554 38.6869 22.4041L37.7186 23.2057C37.407 22.9796 37.0322 22.861 36.5944 22.8501C36.1571 22.8341 35.725 23.0027 35.2983 23.356C34.9208 23.6684 34.6713 24.0409 34.5499 24.4734C34.4289 24.9008 34.4362 25.358 34.572 25.845C34.7081 26.3269 34.9732 26.8059 35.3672 27.2819C35.7703 27.7688 36.1979 28.1294 36.65 28.3637C37.1048 28.5957 37.5558 28.6949 38.0028 28.6614C38.4526 28.6256 38.869 28.4492 39.252 28.1321C39.5036 27.9238 39.6958 27.691 39.8285 27.4336C39.9612 27.1762 40.0308 26.9066 40.0371 26.6247C40.0435 26.3428 39.9817 26.0621 39.8517 25.7825L40.82 24.9809C41.0733 25.3982 41.2153 25.8454 41.246 26.3225C41.2772 26.7945 41.1888 27.2641 40.9808 27.7313C40.7733 28.1935 40.4371 28.6171 39.9721 29.002Z" fill="black"/>
<path id="h" d="M45.4556 18.9408L47.7941 23.2716L46.6879 23.8689L41.5048 14.2698L42.6109 13.6725L44.5141 17.1972L44.6079 17.1465C44.5758 16.6836 44.6695 16.2516 44.8888 15.8507C45.1096 15.4449 45.5028 15.0894 46.0684 14.784C46.559 14.5191 47.0418 14.3855 47.5168 14.3833C47.9901 14.3779 48.4371 14.5219 48.8579 14.8154C49.2801 15.104 49.6582 15.5576 49.9923 16.1763L52.4624 20.7509L51.3563 21.3482L48.9266 16.8486C48.6179 16.2768 48.2307 15.9147 47.7651 15.7626C47.301 15.6056 46.808 15.668 46.2862 15.9497C45.9237 16.1454 45.6401 16.3975 45.4353 16.7058C45.2336 17.0125 45.1293 17.3573 45.1223 17.7405C45.1184 18.122 45.2295 18.522 45.4556 18.9408Z" fill="black"/>
<path id="k" d="M57.5236 15.5222L57.0454 14.042L57.2898 13.9667L59.6383 9.43105L61.1248 8.97324L58.615 13.7815L58.5132 13.8129L57.5236 15.5222ZM57.2816 18.7179L54.0707 8.29209L55.2721 7.92208L58.483 18.3479L57.2816 18.7179ZM62.2502 17.1877L58.0042 14.2595L58.6023 13.1612L63.7774 16.7174L62.2502 17.1877Z" fill="black"/>
<path id="a_2" d="M71.0917 15.6745C70.576 15.7275 70.0979 15.6785 69.6576 15.5274C69.2169 15.3728 68.8538 15.1227 68.5684 14.7772C68.2827 14.4282 68.1126 13.9887 68.0581 13.4589C68.0102 12.9926 68.0632 12.6051 68.2171 12.2966C68.3707 11.9845 68.5926 11.7297 68.8829 11.5321C69.1731 11.3345 69.4995 11.176 69.8621 11.0566C70.2278 10.9333 70.5972 10.8276 70.9701 10.7393C71.4581 10.6248 71.8541 10.5359 72.1582 10.4726C72.4654 10.4053 72.6855 10.3238 72.8185 10.228C72.9549 10.1319 73.0128 9.98313 72.9921 9.78178L72.9878 9.73939C72.9341 9.21657 72.7492 8.82503 72.4333 8.56477C72.121 8.30415 71.6769 8.20342 71.1011 8.2626C70.5041 8.32395 70.0494 8.50275 69.7372 8.79901C69.4249 9.09527 69.2152 9.39885 69.1079 9.70974L67.8774 9.40781C68.0385 8.89148 68.2816 8.47739 68.6065 8.16555C68.9346 7.84981 69.3032 7.61559 69.7123 7.46288C70.1246 7.30627 70.5356 7.20691 70.9454 7.1648C71.2068 7.13794 71.5104 7.13887 71.856 7.16761C72.2048 7.19245 72.548 7.28391 72.8856 7.44199C73.2266 7.59971 73.5229 7.8602 73.7744 8.22347C74.026 8.58673 74.1849 9.09159 74.2514 9.73804L74.8025 15.1004L73.5519 15.2289L73.4387 14.1268L73.3751 14.1333C73.3085 14.3187 73.1866 14.5222 73.0094 14.7439C72.8323 14.9655 72.5868 15.1639 72.2727 15.339C71.9587 15.514 71.5651 15.6259 71.0917 15.6745ZM71.167 14.5316C71.6616 14.4808 72.0684 14.3408 72.3876 14.1116C72.7103 13.8821 72.9424 13.6048 73.0839 13.2797C73.2289 12.9542 73.284 12.6219 73.2492 12.2828L73.1315 11.1383C73.0851 11.2073 72.9745 11.2776 72.7998 11.3491C72.6282 11.4167 72.4279 11.4819 72.1987 11.5447C71.9728 11.6036 71.7517 11.6585 71.5356 11.7092C71.3227 11.7561 71.15 11.7953 71.0176 11.8267C70.6969 11.9025 70.4002 12.0026 70.1274 12.1271C69.8578 12.2476 69.646 12.4103 69.4922 12.6154C69.3415 12.8165 69.2825 13.076 69.3152 13.3939C69.3598 13.8284 69.5543 14.1404 69.8986 14.33C70.2461 14.5156 70.6689 14.5828 71.167 14.5316Z" fill="black"/>
</g>
</g>
<rect x="0.75" y="0.75" width="151.5" height="151.5" rx="75.75" stroke="black" stroke-width="1.5"/>
</g>
<defs>
<clipPath id="clip0_151_18">
<rect width="153" height="153" rx="76.5" fill="white"/>
</clipPath>
</defs>
</svg>
